<svg width="117" height="144" viewBox="0 0 117 144" fill="none" xmlns="http://www.w3.org/2000/svg">
<path fill-rule="evenodd" clip-rule="evenodd" d="M41.3988 79.2958C38.5328 81.5247 35.7439 81.4814 33.4372 82.1618C29.5943 83.2955 26.5308 83.6918 22.7244 84.2669C2.866 84.0729 0 119.145 0 138.481C0 140.104 0.0577879 141.712 0.169924 143.305H116.264C116.376 141.712 116.433 140.104 116.433 138.481C118.196 121.021 116.785 88.9738 98.4017 84.0729C98.2937 84.0763 92.1627 84.0729 92.0478 84.066C86.7747 83.7158 77.7027 81.8439 74.7906 77.3145C62.6592 78.3994 41.2949 88.4992 41.3988 79.2964V79.2958Z" fill="#79B48A"/>
<path fill-rule="evenodd" clip-rule="evenodd" d="M33.207 82.0701L49.2597 117.927C48.9797 118.051 54.2356 118.424 72.6459 117.927C75.4403 111.956 79.2364 100.95 82.0632 89.3796C82.7367 86.6251 83.7948 82.6453 83.3772 82.5208C72.7683 76.9532 71.4729 70.5614 71.4729 64.4448C71.4729 63.878 59.9828 79.4828 44.735 65.3275C45.2228 77.7821 44.53 79.3782 33.207 82.0701Z" fill="#FEC6AD"/>
<path fill-rule="evenodd" clip-rule="evenodd" d="M33.207 82.0701L49.2597 117.927C48.9797 118.051 54.2356 118.424 72.6459 117.927C75.4403 111.956 79.2364 100.95 82.0632 89.3796C82.7367 86.6251 83.7948 82.6453 83.3772 82.5208C72.7683 76.9532 71.4729 70.5614 71.4729 64.4448C71.4729 63.878 59.9828 79.4828 44.735 65.3275C45.2228 77.7821 44.53 79.3782 33.207 82.0701Z" fill="#FAB9A6"/>
<path d="M81.4999 91.5834C60.9845 101.657 56.0478 99.6778 37.4648 91.5586C40.5634 98.791 57.8371 143.287 60.8311 143.306C66.0052 143.339 79.6376 98.5103 81.4999 91.5834Z" fill="#F9F6F6"/>
<path fill-rule="evenodd" clip-rule="evenodd" d="M35.6053 7.37252C16.0393 24.982 17.8513 70.7637 38.8139 80.4838C49.3553 77.0661 46.1667 67.7546 46.1247 63.6875C42.4965 61.8844 40.7566 56.3512 37.8955 52.3507C34.4695 47.5791 31.8037 48.6392 33.4327 38.8525C39.3911 37.3507 39.5837 37.2372 43.3564 32.826C45.4836 30.3343 48.3447 25.5551 49.2219 21.5292C52.319 23.1809 51.6579 24.0932 56.4681 25.326C71.2618 25.6871 81.3086 41.9104 71.0801 64.5364C71.5225 65.9735 71.7261 70.0689 73.0986 73.0092C74.3851 75.7679 78.0938 80.2499 77.4058 81.1243C69.7386 90.8691 66.9944 99.5483 74.8315 120.057C77.4912 127.018 79.5997 128.94 80.5319 136.337C105.965 123.533 113.162 24.6497 80.5319 7.38146C77.5242 6.50295 66.0175 -6.42227 40.4588 4.11301C38.9934 4.71703 36.7638 6.32959 35.6053 7.37321V7.37252Z" fill="#37342D"/>
<path fill-rule="evenodd" clip-rule="evenodd" d="M66.7466 28.3493C63.0633 25.9855 60.6225 25.709 58.8806 25.5074C54.8719 25.0444 52.7627 23.9196 49.1523 21.3652C48.2813 25.4097 44.7976 30.7337 42.6862 33.2358C38.941 37.6676 39.3552 37.3518 33.4409 38.8516C31.8242 48.6844 34.609 47.7612 38.0102 52.5555C49.5905 85.6068 73.4796 70.0955 77.2028 52.2625C79.0327 43.4987 74.9202 33.6589 66.7459 28.3486L66.7466 28.3493Z" fill="#FEC6AD"/>
</svg>
