<svg width="171" height="119" viewBox="0 0 171 119" fill="none" xmlns="http://www.w3.org/2000/svg">
<rect x="45.668" y="35.2891" width="75.9379" height="75.9379" fill="#F9F9FA"/>
<rect x="41.3008" y="35.2891" width="85.8202" height="9.88233" fill="#91A5BC"/>
<rect y="110.67" width="171" height="7.68539" fill="#B4C2D0"/>
<rect x="45.668" y="104.986" width="75.9379" height="5.72135" fill="#91A5BC"/>
<rect x="72.7227" y="88.7246" width="21.5478" height="16.1609" fill="#91A5BC"/>
<rect x="51.1758" y="51.9141" width="17.6842" height="15.6037" fill="#91A5BC"/>
<rect x="51.1758" y="69.8711" width="17.6842" height="15.6037" fill="#91A5BC"/>
<rect x="51.1758" y="88.7246" width="17.6842" height="15.6037" fill="#91A5BC"/>
<rect x="98.7617" y="88.7246" width="17.6842" height="15.6037" fill="#91A5BC"/>
<rect x="74.5195" y="51.9141" width="17.6842" height="15.6037" fill="#91A5BC"/>
<rect x="74.5195" y="70.7695" width="17.6842" height="15.6037" fill="#91A5BC"/>
<rect x="99.0273" y="51.9141" width="17.6842" height="15.6037" fill="#91A5BC"/>
<rect x="98.7617" y="70.7695" width="17.6842" height="15.6037" fill="#91A5BC"/>
<rect x="121.688" y="65.8359" width="41.6292" height="42.2697" fill="#F1F1F4"/>
<rect x="121.688" y="65.8359" width="44.8315" height="5.76405" fill="#91A5BC"/>
<rect x="119.766" y="104.904" width="49.3146" height="5.76405" fill="#91A5BC"/>
<rect x="124" y="77" width="16" height="9" fill="#91A5BC"/>
<rect x="124" y="89" width="16" height="9" fill="#91A5BC"/>
<rect x="144" y="89" width="17" height="9" fill="#91A5BC"/>
<rect x="144" y="77" width="17" height="9" fill="#91A5BC"/>
<rect x="2.16016" y="66" width="43.6368" height="42" fill="#F1F1F4"/>
<rect x="0.0820312" y="66" width="45.7148" height="6" fill="#91A5BC"/>
<rect y="104.904" width="51.2365" height="5.76405" fill="#91A5BC"/>
<rect x="5" y="77" width="17" height="9" fill="#91A5BC"/>
<rect x="5" y="89" width="17" height="9" fill="#91A5BC"/>
<rect x="26" y="89" width="17" height="9" fill="#91A5BC"/>
<rect x="26" y="77" width="17" height="9" fill="#91A5BC"/>
<rect x="62.8477" y="24.0801" width="41.3" height="8.26" fill="#91A5BC"/>
<rect x="67.3359" y="32.3398" width="1.79565" height="12.39" fill="#91A5BC"/>
<rect x="97.8633" y="32.3398" width="1.79565" height="12.39" fill="#91A5BC"/>
<circle cx="82.712" cy="15.712" r="15.712" fill="#CBD5E0"/>
<path d="M85.3131 5.46289H79.652C78.8691 5.46289 78.2344 6.09758 78.2344 6.88052V24.9883C78.2344 25.7713 78.8691 26.406 79.652 26.406H85.3131C86.096 26.406 86.7307 25.7713 86.7307 24.9883V6.88052C86.7307 6.09758 86.096 5.46289 85.3131 5.46289Z" fill="url(#paint0_linear_1468_4984)"/>
<path d="M85.3131 5.46289H79.652C78.8691 5.46289 78.2344 6.09758 78.2344 6.88052V24.9883C78.2344 25.7713 78.8691 26.406 79.652 26.406H85.3131C86.096 26.406 86.7307 25.7713 86.7307 24.9883V6.88052C86.7307 6.09758 86.096 5.46289 85.3131 5.46289Z" fill="white"/>
<path d="M92.957 18.7576L92.957 13.111C92.957 12.3248 92.3197 11.6875 91.5335 11.6875L73.4313 11.6875C72.6451 11.6875 72.0077 12.3248 72.0077 13.111L72.0077 18.7576C72.0077 19.5438 72.6451 20.1811 73.4313 20.1811L91.5335 20.1811C92.3197 20.1811 92.957 19.5438 92.957 18.7576Z" fill="url(#paint1_linear_1468_4984)"/>
<path d="M92.957 18.7576L92.957 13.111C92.957 12.3248 92.3197 11.6875 91.5335 11.6875L73.4313 11.6875C72.6451 11.6875 72.0077 12.3248 72.0077 13.111L72.0077 18.7576C72.0077 19.5438 72.6451 20.1811 73.4313 20.1811L91.5335 20.1811C92.3197 20.1811 92.957 19.5438 92.957 18.7576Z" fill="white"/>
<defs>
<linearGradient id="paint0_linear_1468_4984" x1="78.2344" y1="15.2363" x2="86.5272" y2="15.2513" gradientUnits="userSpaceOnUse">
<stop stop-color="#FF7070"/>
<stop offset="1" stop-color="#FF7070" stop-opacity="0.65"/>
</linearGradient>
<linearGradient id="paint1_linear_1468_4984" x1="83.1807" y1="11.6875" x2="83.1657" y2="19.9777" gradientUnits="userSpaceOnUse">
<stop stop-color="#FF7070"/>
<stop offset="1" stop-color="#FF7070" stop-opacity="0.65"/>
</linearGradient>
</defs>
</svg>
