<svg viewBox="0 0 115 148" fill="none" xmlns="http://www.w3.org/2000/svg">
<path d="M87.5854 53.2406C87.5854 71.285 73.7702 82.2826 56.7282 82.2826C39.6863 82.2826 25.8711 71.285 25.8711 53.2406C25.8711 35.1962 39.6863 20.5684 56.7282 20.5684C73.7702 20.5684 87.5854 35.1962 87.5854 53.2406Z" fill="#FEC6AD"/>
<rect x="26" y="14" width="62" height="32" rx="8" fill="#2F5E92"/>
<circle cx="56.7289" cy="17.1449" r="16.1906" fill="url(#paint0_linear_1393_22496)" stroke="white" stroke-width="0.1"/>
<path d="M57.5865 8.49023H55.8742C54.9815 8.49023 54.2578 9.5113 54.2578 10.7709V23.5173C54.2578 24.7769 54.9815 25.7979 55.8742 25.7979H57.5865C58.4792 25.7979 59.2029 24.7769 59.2029 23.5173V10.7709C59.2029 9.5113 58.4792 8.49023 57.5865 8.49023Z" fill="white"/>
<path d="M65.3828 17.9992L65.3828 16.2818C65.3828 15.3905 64.3633 14.668 63.1057 14.668L50.3523 14.668C49.0946 14.668 48.0751 15.3905 48.0751 16.2818L48.0751 17.9992C48.0751 18.8905 49.0946 19.613 50.3523 19.613L63.1057 19.613C64.3633 19.613 65.3828 18.8905 65.3828 17.9992Z" fill="white"/>
<path fill-rule="evenodd" clip-rule="evenodd" d="M57.504 123.017L29.3667 89C11.8404 99.3219 0 118.99 0 141.556C0 143.504 0.0882759 145.431 0.260866 147.332H114.739C114.912 145.431 115 143.504 115 141.556C115 119.558 103.748 100.313 86.9451 89.7966L57.504 123.017Z" fill="#3C71AB"/>
<defs>
<linearGradient id="paint0_linear_1393_22496" x1="53.0917" y1="33.6201" x2="55.2892" y2="2.54716" gradientUnits="userSpaceOnUse">
<stop stop-color="#ED6855"/>
<stop offset="1" stop-color="#DB2925"/>
</linearGradient>
</defs>
</svg>
