<svg width="36" height="36" viewBox="0 0 36 36" fill="none" xmlns="http://www.w3.org/2000/svg">
<g clip-path="url(#clip0_1378_2207)">
<path d="M18 36C27.9411 36 36 27.9411 36 18C36 8.05887 27.9411 0 18 0C8.05887 0 0 8.05887 0 18C0 27.9411 8.05887 36 18 36Z" fill="#718096"/>
<path fill-rule="evenodd" clip-rule="evenodd" d="M13.4333 12.9568C14.7481 13.1809 14.8907 13.883 14.9392 15.2824C14.9807 16.4798 15.0239 17.8145 14.4993 18.6932C13.0862 18.8057 11.6216 15.5494 11.045 14.3939C10.4608 13.2226 10.6609 12.4897 8.97824 12.5326C8.10647 12.5547 5.89549 12.3097 5.3809 12.9075C4.95694 13.7871 9.25574 20.5837 10.0495 21.6817C10.9255 22.8933 12.1844 24.1131 13.66 24.8942C15.146 25.681 17.8466 26.2191 19.5015 25.5605C19.7234 24.6164 19.5831 22.5431 20.7604 22.6502C22.1802 22.7792 22.58 25.9783 25.8951 25.8644C27.2638 25.8173 28.7879 26.0416 29.7026 25.413C29.8754 24.246 28.5587 22.8905 27.8174 22.1508C26.7857 21.1215 25.3928 20.4219 25.9425 19.2728C26.6426 17.81 30.0076 14.7362 29.7026 12.7768C28.8328 12.4173 25.4546 12.4692 24.3233 12.6534C24.0056 12.811 21.4187 19.097 20.1246 18.6887C18.7621 17.554 20.4291 13.4666 19.355 12.3784C18.8457 11.8624 13.9316 11.3653 13.4333 12.9565V12.9568Z" fill="#9FB4C0"/>
<path fill-rule="evenodd" clip-rule="evenodd" d="M13.4333 12.9568C14.7481 13.1809 14.8907 13.883 14.9392 15.2824C14.9807 16.4798 15.0239 17.8145 14.4993 18.6932C13.0862 18.8057 11.6216 15.5494 11.045 14.3939C10.4608 13.2226 10.6609 12.4897 8.97824 12.5326C8.10647 12.5547 5.89549 12.3097 5.3809 12.9075C4.95694 13.7871 9.25574 20.5837 10.0495 21.6817C10.9255 22.8933 12.1844 24.1131 13.66 24.8942C15.146 25.681 17.8466 26.2191 19.5015 25.5605C19.7234 24.6164 19.5831 22.5431 20.7604 22.6502C22.1802 22.7792 22.58 25.9783 25.8951 25.8644C27.2638 25.8173 28.7879 26.0416 29.7026 25.413C29.8754 24.246 28.5587 22.8905 27.8174 22.1508C26.7857 21.1215 25.3928 20.4219 25.9425 19.2728C26.6426 17.81 30.0076 14.7362 29.7026 12.7768C28.8328 12.4173 25.4546 12.4692 24.3233 12.6534C24.0056 12.811 21.4187 19.097 20.1246 18.6887C18.7621 17.554 20.4291 13.4666 19.355 12.3784C18.8457 11.8624 13.9316 11.3653 13.4333 12.9565V12.9568Z" fill="white"/>
</g>
<defs>
<clipPath id="clip0_1378_2207">
<rect width="36" height="36" fill="white"/>
</clipPath>
</defs>
</svg>
