<svg width="26" height="26" viewBox="0 0 26 26" fill="none" xmlns="http://www.w3.org/2000/svg">
<circle cx="13" cy="10" r="6.2" stroke="#718096" stroke-width="1.6"/>
<path d="M2.40399 23.5776C2.10927 23.9068 2.13719 24.4126 2.46636 24.7073C2.79553 25.002 3.30129 24.9741 3.59601 24.6449L2.40399 23.5776ZM22.4314 24.674C22.7421 24.988 23.2487 24.9907 23.5627 24.6799C23.8768 24.3691 23.8794 23.8626 23.5686 23.5486L22.4314 24.674ZM3 24.1113C3.59601 24.6449 3.59577 24.6452 3.59557 24.6454C3.59555 24.6454 3.59539 24.6456 3.59535 24.6457C3.59527 24.6457 3.59533 24.6457 3.59554 24.6454C3.59595 24.645 3.59694 24.6439 3.59848 24.6422C3.60157 24.6388 3.60692 24.633 3.61448 24.6248C3.62962 24.6085 3.65363 24.5828 3.68626 24.5488C3.75154 24.4809 3.85118 24.3797 3.9831 24.2529C4.24717 23.999 4.63928 23.6439 5.14279 23.2482C6.15315 22.4541 7.59383 21.5108 9.33326 20.8852C11.0676 20.2614 13.0871 19.9571 15.2808 20.418C17.4717 20.8783 19.8988 22.1149 22.4314 24.674L23.5686 23.5486C20.8512 20.8025 18.1533 19.3866 15.6098 18.8522C13.0691 18.3183 10.7449 18.6771 8.79174 19.3796C6.84367 20.0803 5.2531 21.1265 4.15409 21.9902C3.60291 22.4234 3.1708 22.8144 2.87432 23.0993C2.72597 23.2419 2.61126 23.3583 2.53225 23.4406C2.49273 23.4817 2.46212 23.5144 2.44066 23.5375C2.42993 23.5491 2.42149 23.5583 2.41537 23.5651C2.41231 23.5684 2.40983 23.5712 2.40793 23.5733C2.40698 23.5743 2.40618 23.5752 2.40552 23.5759C2.40519 23.5763 2.40481 23.5767 2.40465 23.5769C2.4043 23.5773 2.40399 23.5776 3 24.1113Z" fill="#718096"/>
</svg>
