<svg width="26" height="26" viewBox="0 0 26 26" fill="none" xmlns="http://www.w3.org/2000/svg">
<path fill-rule="evenodd" clip-rule="evenodd" d="M22.0981 4.8C22.0981 4.35817 21.7399 4 21.2981 4H14.0981C13.6563 4 13.2981 4.35817 13.2981 4.8C13.2981 5.24183 13.6563 5.6 14.0981 5.6L19.3667 5.6L14.8949 10.0718C13.6367 9.01832 12.0155 8.38413 10.2461 8.38413C6.24418 8.38413 3 11.6283 3 15.6302C3 19.6321 6.24418 22.8763 10.2461 22.8763C14.248 22.8763 17.4922 19.6321 17.4922 15.6302C17.4922 13.9742 16.9367 12.448 16.0018 11.2276L20.4981 6.73137V12C20.4981 12.4418 20.8563 12.8 21.2981 12.8C21.7399 12.8 22.0981 12.4418 22.0981 12V4.8ZM15.8922 15.6302C15.8922 18.7485 13.3643 21.2763 10.2461 21.2763C7.12784 21.2763 4.6 18.7485 4.6 15.6302C4.6 12.512 7.12784 9.98413 10.2461 9.98413C13.3643 9.98413 15.8922 12.512 15.8922 15.6302Z" fill="#718096"/>
</svg>
