<svg width="98" height="100" viewBox="0 0 98 100" fill="none" xmlns="http://www.w3.org/2000/svg">
<path fill-rule="evenodd" clip-rule="evenodd" d="M34.5603 56.1907C35.1611 58.8251 44.1455 61.2232 50.4131 60.9365C54.5711 60.7467 65.5276 57.0545 66.5168 56.1907C57.5217 56.9053 56.5748 52.7632 56.5748 50.4764C52.7874 52.6193 51.1304 54.0479 42.3719 50.9526C42.3719 54.0175 41.1883 56.6669 34.5603 56.1907Z" fill="#FEC6AD"/>
<path fill-rule="evenodd" clip-rule="evenodd" d="M34.5603 56.1907C35.1611 58.8251 44.1455 61.2232 50.4131 60.9365C54.5711 60.7467 65.5276 57.0545 66.5168 56.1907C57.5217 56.9053 56.5748 52.7632 56.5748 50.4764C52.7874 52.6193 51.1304 54.0479 42.3719 50.9526C42.3719 54.0175 41.1883 56.6669 34.5603 56.1907Z" fill="#FAB9A6"/>
<path d="M62.0211 39.2519C62.0211 47.8441 56.2979 53.0816 49.2388 53.0816C42.1787 53.0816 36.4561 47.8447 36.4561 39.2519C36.4561 30.6591 42.1793 23.6932 49.2388 23.6932C56.2979 23.6932 62.0211 30.6591 62.0211 39.2519Z" fill="#FEC6AD"/>
<path fill-rule="evenodd" clip-rule="evenodd" d="M36.0369 26.2571C33.5933 28.9989 33.9983 31.7132 34.3588 34.7916C34.5155 36.1272 35.8728 36.819 36.4543 37.9457C38.0107 34.9363 38.1115 31.5173 40.1883 28.3206C60.6213 26.2987 55.7999 26.4271 62.0543 37.7897C62.116 37.902 62.3772 37.8685 62.4926 37.9457C63.8043 30.4693 63.6932 26.7547 58.6481 21.6246C57.3799 20.3349 58.4566 21.5938 57.5011 20.3916C53.4973 18.6599 54.0907 17.9504 48.2897 17.2316C45.978 16.9451 42.1995 17.3762 40.0134 18.1797C35.2059 19.9475 39.2381 23.7927 36.0369 26.2571Z" fill="#1B2454"/>
<path d="M37.9498 44.8516C38.7033 44.612 38.9115 43.1366 38.4149 41.5561C37.9183 39.9755 36.9049 38.8884 36.1514 39.128C35.3979 39.3675 35.1897 40.8429 35.6863 42.4234C36.1829 44.004 37.1963 45.0911 37.9498 44.8516Z" fill="#FEC6AD"/>
<path fill-rule="evenodd" clip-rule="evenodd" d="M48.7642 60.9521C44.9767 60.2378 38.3487 58.5711 35.2714 56.192C30.1083 55.0658 21.0667 59.7839 21.0667 76.1913C21.0667 79.0513 21.4787 82.0083 22.2507 84.9352H77.5069C78.0611 82.4238 78.369 78.6897 78.369 76.1919C78.5659 70.1768 75.2762 53.8464 65.5709 56.192C60.1041 57.5129 52.5516 60.9521 50.6579 60.9521H48.7642Z" fill="#3A4551"/>
<path d="M71.9796 75.1211C71.9796 76.3233 71.1314 77.2984 70.0853 77.2984C69.0391 77.2984 68.1904 76.3239 68.1904 75.1211C68.1904 73.9183 69.0391 72.9437 70.0853 72.9437C71.1309 72.9437 71.9796 73.9183 71.9796 75.1211Z" fill="#3A4551"/>
<path d="M31.2439 85.2372L34.0213 82.3804L35.0315 85.2372H31.2439Z" fill="white"/>
<path d="M65.8071 85.9519H69.5947L67.8275 83.9281L67.07 83.333L65.8071 85.9519Z" fill="white"/>
<path d="M60.9173 44.5037C60.1495 44.3156 59.8303 42.9113 60.2044 41.3671C60.5784 39.8229 61.504 38.7237 62.2717 38.9118C63.0395 39.0999 63.3587 40.5042 62.9846 42.0484C62.6106 43.5926 61.685 44.6919 60.9173 44.5037Z" fill="#FEC6AD"/>
</svg>
