<svg width="36" height="36" viewBox="0 0 36 36" fill="none" xmlns="http://www.w3.org/2000/svg">
<path d="M18 36C27.9411 36 36 27.9411 36 18C36 8.05887 27.9411 0 18 0C8.05887 0 0 8.05887 0 18C0 27.9411 8.05887 36 18 36Z" fill="#718096"/>
<path fill-rule="evenodd" clip-rule="evenodd" d="M23.1206 9.86248H12.6119C11.094 9.86248 9.86346 11.093 9.86346 12.6109V23.205C9.86346 24.7229 11.094 25.9534 12.6119 25.9534H23.1206C24.6385 25.9534 25.869 24.7229 25.869 23.205V12.6109C25.869 11.093 24.6385 9.86248 23.1206 9.86248ZM12.6119 7.76074C9.93321 7.76074 7.76172 9.93224 7.76172 12.6109V23.205C7.76172 25.8836 9.93321 28.0551 12.6119 28.0551H23.1206C25.7992 28.0551 27.9707 25.8836 27.9707 23.205V12.6109C27.9707 9.93223 25.7992 7.76074 23.1206 7.76074H12.6119Z" fill="#9FB4C0"/>
<path fill-rule="evenodd" clip-rule="evenodd" d="M23.1206 9.86248H12.6119C11.094 9.86248 9.86346 11.093 9.86346 12.6109V23.205C9.86346 24.7229 11.094 25.9534 12.6119 25.9534H23.1206C24.6385 25.9534 25.869 24.7229 25.869 23.205V12.6109C25.869 11.093 24.6385 9.86248 23.1206 9.86248ZM12.6119 7.76074C9.93321 7.76074 7.76172 9.93224 7.76172 12.6109V23.205C7.76172 25.8836 9.93321 28.0551 12.6119 28.0551H23.1206C25.7992 28.0551 27.9707 25.8836 27.9707 23.205V12.6109C27.9707 9.93223 25.7992 7.76074 23.1206 7.76074H12.6119Z" fill="white"/>
<path fill-rule="evenodd" clip-rule="evenodd" d="M17.8792 20.6304C19.383 20.6304 20.602 19.4113 20.602 17.9075C20.602 16.4038 19.383 15.1847 17.8792 15.1847C16.3755 15.1847 15.1564 16.4038 15.1564 17.9075C15.1564 19.4113 16.3755 20.6304 17.8792 20.6304ZM17.8792 22.7321C20.5438 22.7321 22.7038 20.5721 22.7038 17.9075C22.7038 15.243 20.5438 13.083 17.8792 13.083C15.2147 13.083 13.0547 15.243 13.0547 17.9075C13.0547 20.5721 15.2147 22.7321 17.8792 22.7321Z" fill="#9FB4C0"/>
<path fill-rule="evenodd" clip-rule="evenodd" d="M17.8792 20.6304C19.383 20.6304 20.602 19.4113 20.602 17.9075C20.602 16.4038 19.383 15.1847 17.8792 15.1847C16.3755 15.1847 15.1564 16.4038 15.1564 17.9075C15.1564 19.4113 16.3755 20.6304 17.8792 20.6304ZM17.8792 22.7321C20.5438 22.7321 22.7038 20.5721 22.7038 17.9075C22.7038 15.243 20.5438 13.083 17.8792 13.083C15.2147 13.083 13.0547 15.243 13.0547 17.9075C13.0547 20.5721 15.2147 22.7321 17.8792 22.7321Z" fill="white"/>
<path d="M23.7876 12.8411C23.7876 13.352 23.3735 13.7661 22.8626 13.7661C22.3517 13.7661 21.9375 13.352 21.9375 12.8411C21.9375 12.3302 22.3517 11.916 22.8626 11.916C23.3735 11.916 23.7876 12.3302 23.7876 12.8411Z" fill="#9FB4C0"/>
<path d="M23.7876 12.8411C23.7876 13.352 23.3735 13.7661 22.8626 13.7661C22.3517 13.7661 21.9375 13.352 21.9375 12.8411C21.9375 12.3302 22.3517 11.916 22.8626 11.916C23.3735 11.916 23.7876 12.3302 23.7876 12.8411Z" fill="#D2F0FF"/>
<path d="M23.7876 12.8411C23.7876 13.352 23.3735 13.7661 22.8626 13.7661C22.3517 13.7661 21.9375 13.352 21.9375 12.8411C21.9375 12.3302 22.3517 11.916 22.8626 11.916C23.3735 11.916 23.7876 12.3302 23.7876 12.8411Z" fill="white"/>
</svg>
