<svg width="36" height="36" viewBox="0 0 36 36" fill="none" xmlns="http://www.w3.org/2000/svg">
<path d="M18 36C27.9411 36 36 27.9411 36 18C36 8.05887 27.9411 0 18 0C8.05887 0 0 8.05887 0 18C0 27.9411 8.05887 36 18 36Z" fill="#718096"/>
<path fill-rule="evenodd" clip-rule="evenodd" d="M13.1388 18.6081C13.0183 18.6916 12.7872 18.6897 12.4512 19.0102C12.1132 19.3307 12.1171 19.554 12.0064 19.7017C11.9539 20.0707 11.9461 20.2009 11.9869 20.5952C12.0102 20.6107 12.1656 20.9933 12.2181 21.0749C12.3132 21.2206 12.4492 21.3624 12.5988 21.4712C13.0902 21.8363 14.0808 22.287 14.6849 22.4948C14.8578 22.555 15.0831 22.6288 15.2734 22.6832C15.4638 22.7376 15.7532 22.7687 15.895 22.8891L14.7276 24.0487C14.3294 24.4488 13.9604 24.8159 13.5603 25.2141C13.2611 25.5113 12.6648 26.0202 12.4764 26.4631C11.9248 27.7625 13.2029 29.0872 14.5276 28.5997C15.2909 28.318 17.612 25.5132 18.1384 25.2277C18.9018 25.8939 21.0326 28.3433 21.7473 28.6035C22.4699 28.8677 23.1245 28.5744 23.4838 28.184C23.8665 27.7703 24.0627 27.106 23.7791 26.4417C23.5945 26.0085 22.9944 25.4938 22.6933 25.1927C21.9066 24.408 21.1258 23.6447 20.3605 22.8561C20.848 22.7026 21.2851 22.6036 21.7493 22.4307C22.4311 22.1762 23.6703 21.644 24.051 21.0594C24.5094 20.3582 24.2103 19.8415 24.2394 19.5735L24.0355 19.2724C23.5693 18.5576 22.6098 18.3401 21.8134 18.8237C20.0167 19.9134 17.8898 20.1873 15.8658 19.4958C14.2362 18.9383 14.4926 18.4683 13.1368 18.6042L13.1388 18.6081Z" fill="white"/>
<path fill-rule="evenodd" clip-rule="evenodd" d="M17.8506 10.6089C19.1811 10.3971 20.2145 11.4363 20.3951 12.5512C20.6146 13.9051 19.5716 14.9481 18.4625 15.1268C17.1047 15.3444 16.0384 14.3091 15.8752 13.1845C15.6713 11.7879 16.6794 10.7973 17.8526 10.6108L17.8506 10.6089ZM16.1802 7.69725C15.9121 7.90314 15.0419 8.04299 13.9523 9.27834C12.041 11.4441 12.2294 14.8996 14.3272 16.8478C14.4437 16.9546 14.7739 17.209 14.8322 17.3081C15.0478 17.3877 15.2148 17.5412 15.4207 17.6558C16.9688 18.5299 18.8937 18.6114 20.4592 17.8597C25.3521 15.5095 24.2876 8.56549 19.3268 7.48748C17.9089 7.17864 17.3398 7.43697 16.1821 7.69725H16.1802Z" fill="white"/>
</svg>
